<?xml version="1.0" encoding="UTF-8"?>
<svg width="512px" height="513px" viewBox="0 0 512 513" version="1.1" xmlns="http://www.w3.org/2000/svg" xmlns:xlink="http://www.w3.org/1999/xlink">
    <title>active</title>
    <g id="Page-1" stroke="none" stroke-width="1" fill="none" fill-rule="evenodd">
        <g id="active" transform="translate(0.000000, 0.626323)">
            <g id="ActiveBg" transform="translate(0.000000, 0.373677)">
                <rect id="Container" x="0" y="0" width="512" height="512"></rect>
                <polygon id="Path" fill="#F44336" points="0 0 512 0 512 512"></polygon>
            </g>
            <g id="curved-arrow" transform="translate(340.764795, 103.131894) rotate(-67.000000) translate(-340.764795, -103.131894) translate(274.811412, -5.437611)" fill="#FFFFFF" fill-rule="nonzero">
                <path d="M131.631037,136.138134 C131.322881,132.046537 130.756581,127.949919 129.924046,123.869077 C120.869123,79.4896522 82.9181704,47.7550291 38.9482537,43.5537195 L64.7855257,18.3616375 C69.0938215,14.161045 69.0938215,7.35103691 64.7855257,3.15044439 C60.4779654,-1.05014813 53.4926131,-1.05014813 49.1843173,3.15044439 L3.23087837,47.9550914 C3.22940746,47.9565256 3.22793655,47.9586768 3.22646564,47.9601109 C2.96464364,48.2161047 2.71605982,48.4828545 2.48218511,48.7625116 C2.37627958,48.8879987 2.28655407,49.0206566 2.18873854,49.149729 C2.07547846,49.2988795 1.95633474,49.4437275 1.85042921,49.5986145 C1.71216366,49.800111 1.59081357,50.0087782 1.46872803,50.2167283 C1.41430436,50.3092303 1.35326159,50.3981469 1.30104428,50.492083 C1.18999056,50.6950136 1.09511686,50.9036808 0.998036788,51.1116309 C0.946554933,51.2220596 0.888453983,51.32962 0.840649403,51.4414828 C0.763426621,51.6236185 0.700912941,51.8086224 0.633986529,51.9929092 C0.581033765,52.1413426 0.522197359,52.2876247 0.47439278,52.4382093 C0.428059111,52.5880768 0.394228177,52.7393784 0.354513604,52.8906801 C0.304502659,53.0814205 0.250078984,53.2707269 0.211099866,53.4650527 C0.187565304,53.5833691 0.174327112,53.7024026 0.154469826,53.8207191 C0.116226162,54.0480301 0.0765115884,54.274624 0.0529770263,54.5055204 C0.0426806553,54.6066271 0.0426806553,54.708451 0.0360615597,54.8095578 C0.0184106381,55.0540784 1.42008173e-14,55.2985991 1.42008173e-14,55.5459881 C1.42008173e-14,55.7073287 0.0154688178,55.8672351 0.0220879134,56.0278587 C0.0309133743,56.2135797 0.0309133743,56.3978665 0.0492997509,56.5843045 C0.0838661391,56.9414051 0.138289814,57.2963544 0.209628956,57.6484355 C0.210364411,57.6513038 0.210364411,57.6548891 0.211099866,57.6577574 C0.219189871,57.6971962 0.232428063,57.7344838 0.241253523,57.7739227 C0.30744448,58.0815454 0.383196351,58.387017 0.4773346,58.6889032 C0.511165533,58.7964636 0.553821927,58.8997216 0.59059468,59.0058479 C0.670023828,59.2324418 0.747982065,59.4590357 0.842120313,59.6813273 C0.903898539,59.8268923 0.977444046,59.9645697 1.04437046,60.1058323 C1.12747688,60.2807973 1.20837694,60.4571963 1.30177973,60.6285759 C1.39665343,60.8006726 1.50255896,60.9634473 1.60552267,61.1290904 C1.68789364,61.2617482 1.76585188,61.3972743 1.85484194,61.5270639 C1.99237204,61.7278433 2.14240487,61.9171496 2.29170225,62.107173 C2.36230594,62.1960896 2.42555507,62.2885916 2.49836512,62.375357 C2.70429254,62.6198776 2.9227227,62.8522081 3.14924286,63.0773679 C3.17792561,63.1053336 3.20146017,63.1368847 3.23014292,63.1648504 L3.24485202,63.1791918 C3.2566193,63.1899478 3.26691567,63.2007039 3.2779475,63.2114599 L49.1850528,107.971649 C51.3392007,110.071945 54.1626127,111.122452 56.9852892,111.122452 C59.8079658,111.122452 62.6321132,110.071945 64.7862611,107.971649 C69.0945569,103.771773 69.0945569,96.9610481 64.7862611,92.7604555 L36.2241281,64.9123485 C71.0133592,67.9935957 101.135392,93.0250542 108.28328,128.065367 C109.264377,132.874752 109.775519,137.712819 109.834355,142.522203 C110.061611,160.958775 103.641088,178.978728 91.5546192,193.389672 C89.978539,195.269111 88.3053787,197.087599 86.5388157,198.837248 C82.2636154,203.070109 82.3187745,209.880117 86.6594303,214.047724 C88.5399889,215.853305 90.9155088,216.865807 93.3520714,217.090967 C93.6999416,217.123235 94.0492828,217.13901 94.398624,217.13901 C97.2507187,217.13901 100.101343,216.066992 102.259903,213.929408 C123.246114,193.151605 133.78592,164.777886 131.631037,136.138134 Z" id="XMLID_4_"></path>
            </g>
            <g id="curved-arrow-copy" transform="translate(381.728772, 191.332243) scale(-1, -1) rotate(-67.000000) translate(-381.728772, -191.332243) translate(315.775390, 82.829013)" fill="#FFFFFF" fill-rule="nonzero">
                <path d="M131.631037,136.05503 C131.322881,131.96593 130.756581,127.871813 129.924046,123.793463 C120.869123,79.4411287 82.9181704,47.7258775 38.9482537,43.5271326 L64.7855257,18.3504288 C69.0938215,14.1524005 69.0938215,7.34654955 64.7855257,3.14852124 C60.4779654,-1.04950708 53.4926131,-1.04950708 49.1843173,3.14852124 L3.23087837,47.9258178 C3.22940746,47.927251 3.22793655,47.9294009 3.22646564,47.9308342 C2.96464364,48.1866717 2.71605982,48.4532587 2.48218511,48.732745 C2.37627958,48.8581556 2.28655407,48.9907324 2.18873854,49.1197261 C2.07547846,49.2687855 1.95633474,49.4135451 1.85042921,49.5683376 C1.71216366,49.7697111 1.59081357,49.9782509 1.46872803,50.1860741 C1.41430436,50.2785195 1.35326159,50.3673819 1.30104428,50.4612606 C1.18999056,50.6640674 1.09511686,50.8726072 0.998036788,51.0804304 C0.946554933,51.1907917 0.888453983,51.2982864 0.840649403,51.4100809 C0.763426621,51.5921054 0.700912941,51.7769964 0.633986529,51.9611707 C0.581033765,52.1095135 0.522197359,52.2557063 0.47439278,52.406199 C0.428059111,52.555975 0.394228177,52.7071843 0.354513604,52.8583935 C0.304502659,53.0490176 0.250078984,53.2382083 0.211099866,53.4324155 C0.187565304,53.5506597 0.174327112,53.6696206 0.154469826,53.7878648 C0.116226162,54.0150371 0.0765115884,54.2414927 0.0529770263,54.4722481 C0.0426806553,54.5732931 0.0426806553,54.6750548 0.0360615597,54.7760999 C0.0184106381,55.0204713 -1.04514451e-14,55.2648427 -1.04514451e-14,55.5120806 C-1.04514451e-14,55.6733227 0.0154688178,55.8331316 0.0220879134,55.9936571 C0.0309133743,56.1792647 0.0309133743,56.363439 0.0492997509,56.5497633 C0.0838661391,56.9066458 0.138289814,57.2613785 0.209628956,57.6132447 C0.210364411,57.6161112 0.210364411,57.6196944 0.211099866,57.6225609 C0.219189871,57.6619756 0.232428063,57.6992405 0.241253523,57.7386552 C0.30744448,58.0460902 0.383196351,58.3513753 0.4773346,58.6530772 C0.511165533,58.760572 0.553821927,58.8637669 0.59059468,58.9698284 C0.670023828,59.196284 0.747982065,59.4227396 0.842120313,59.6448954 C0.903898539,59.7903717 0.977444046,59.927965 1.04437046,60.0691414 C1.12747688,60.2439995 1.20837694,60.4202909 1.30177973,60.5915659 C1.39665343,60.7635575 1.50255896,60.9262329 1.60552267,61.0917748 C1.68789364,61.2243516 1.76585188,61.359795 1.85484194,61.4895054 C1.99237204,61.6901622 2.14240487,61.879353 2.29170225,62.0692604 C2.36230594,62.1581227 2.42555507,62.2505682 2.49836512,62.3372806 C2.70429254,62.581652 2.9227227,62.8138407 3.14924286,63.038863 C3.17792561,63.0668117 3.20146017,63.0983435 3.23014292,63.1262921 L3.24485202,63.1406247 C3.2566193,63.1513742 3.26691567,63.1621237 3.2779475,63.1728732 L49.1850528,107.905739 C51.3392007,110.004753 54.1626127,111.054618 56.9852892,111.054618 C59.8079658,111.054618 62.6321132,110.004753 64.7862611,107.905739 C69.0945569,103.708427 69.0945569,96.9018593 64.7862611,92.7038309 L36.2241281,64.8727235 C71.0133592,67.9520897 101.135392,92.968268 108.28328,127.987191 C109.264377,132.79364 109.775519,137.628754 109.834355,142.435202 C110.061611,160.860519 103.641088,178.869473 91.5546192,193.27162 C89.978539,195.149911 88.3053787,196.967289 86.5388157,198.71587 C82.2636154,202.946147 82.3187745,209.751998 86.6594303,213.917061 C88.5399889,215.72154 90.9155088,216.733424 93.3520714,216.958446 C93.6999416,216.990694 94.0492828,217.00646 94.398624,217.00646 C97.2507187,217.00646 100.101343,215.935096 102.259903,213.798817 C123.246114,193.033698 133.78592,164.677299 131.631037,136.05503 Z" id="XMLID_4_"></path>
            </g>
            <ellipse id="Oval" fill="#FFFFFF" cx="355.246784" cy="147.765206" rx="25.4819888" ry="24.8297972"></ellipse>
        </g>
    </g>
</svg>