<?xml version="1.0" encoding="UTF-8"?>
<svg width="512px" height="512px" viewBox="0 0 512 512" version="1.1" xmlns="http://www.w3.org/2000/svg" xmlns:xlink="http://www.w3.org/1999/xlink">
    <title>Group</title>
    <g id="Page-1" stroke="none" stroke-width="1" fill="none" fill-rule="evenodd">
        <g id="Group" transform="translate(0.000000, -0.004333)">
            <rect id="Container" x="0" y="0.00433349609" width="512" height="512"></rect>
            <polygon id="Path" fill="#43A047" points="0 0 512 0 512 512"></polygon>
            <circle id="Oval" stroke="#FFFFFF" stroke-width="16" cx="366" cy="162.004333" r="112"></circle>
            <path id="Line" d="M366,118.599854 C382.979011,118.599854 404.004771,127.362942 424.523171,141.474285 L444.997773,128.440882 C446.776387,127.308602 449.136132,127.832559 450.268412,129.611172 C450.586692,130.111133 450.784196,130.678332 450.845284,131.26785 L450.845284,131.26785 L457.340561,193.948885 C457.557883,196.046096 456.033932,197.922396 453.93672,198.139718 C453.11509,198.224859 452.288008,198.041214 451.579619,197.616348 L451.579619,197.616348 L397.537626,165.203949 C395.729463,164.119479 395.142794,161.774539 396.227263,159.966376 C396.532103,159.458109 396.951095,159.027797 397.451056,158.709517 L397.451056,158.709517 L413.457806,148.519438 C396.169588,137.352 379.018098,130.599854 366,130.599854 C338.267531,130.599854 308.914458,149.319185 278.115435,187.389332 L277.181689,188.548897 L273.429119,193.230586 L264.06574,185.725445 L267.818311,181.043756 C301.012032,139.631425 333.679261,118.599854 366,118.599854 Z" fill="#FFFFFF" fill-rule="nonzero"></path>
        </g>
    </g>
</svg>