<?xml version="1.0" encoding="UTF-8"?>
<svg width="512px" height="512px" viewBox="0 0 512 512" version="1.1" xmlns="http://www.w3.org/2000/svg" xmlns:xlink="http://www.w3.org/1999/xlink">
    <title>icon2</title>
    <g id="Page-1" stroke="none" stroke-width="1" fill="none" fill-rule="evenodd">
        <g id="icon2">
            <rect id="Rectangle" x="0" y="0" width="512" height="512"></rect>
            <g id="right" transform="translate(256.000000, 255.999962) rotate(40.000000) translate(-256.000000, -255.999962) translate(96.000000, 96.000000)" fill="#FFFFFF" fill-rule="nonzero">
                <path d="M235.373157,99.3331681 C123.364283,100.344443 33.0975522,191.434771 33.1036312,303.44821 C33.1036312,312.589469 25.6931766,319.999924 16.5519176,319.999924 C7.41065859,319.999924 0.000101913188,312.589469 0.000101913188,303.44821 C-0.119512832,173.082852 105.069243,67.0954184 235.431778,66.2290513 L257.471764,82.7586959 L235.373157,99.3331681 Z M225.103509,162.206921 L313.379315,96.0000668 C317.547133,92.8742031 320,87.9684686 320,82.7586959 C320,77.5489232 317.547133,72.6431887 313.379315,69.517325 L225.103509,3.31047068 C220.372823,-0.237543947 214.108645,-0.992253636 208.670631,1.33063345 C203.232617,3.65352054 199.446931,8.7011026 198.739603,14.5720043 C198.032275,20.442906 200.510766,26.2451978 205.241452,29.7932124 L275.862097,82.7586959 L205.241452,135.724179 C197.928445,141.208935 196.446354,151.583571 201.93111,158.896578 C207.415865,166.209586 217.790502,167.691677 225.103509,162.206921 L225.103509,162.206921 Z" id="Shape"></path>
            </g>
            <circle id="Oval" stroke="#FFFFFF" stroke-width="24" cx="256" cy="256" r="244"></circle>
        </g>
    </g>
</svg>