<?xml version="1.0" encoding="UTF-8"?>
<svg width="512px" height="512px" viewBox="0 0 512 512" version="1.1" xmlns="http://www.w3.org/2000/svg" xmlns:xlink="http://www.w3.org/1999/xlink">
    <title>Upcoming</title>
    <g id="Page-1" stroke="none" stroke-width="1" fill="none" fill-rule="evenodd">
        <g id="Upcoming" transform="translate(0.000000, -0.004333)">
            <rect id="Container" x="0" y="0.00433349609" width="512" height="512"></rect>
            <polygon id="Path" fill="#FF9800" points="0 0 512 0 512 512"></polygon>
            <g id="clock" transform="translate(267.000000, 60.004333)" fill="#FFFFFF" fill-rule="nonzero">
                <path d="M132.918625,115.307336 L105.590789,94.8115547 L105.590789,53.0612578 C105.590789,48.8633359 102.197539,45.4700859 97.9996172,45.4700859 C93.8016953,45.4700859 90.4084453,48.8633359 90.4084453,53.0612578 L90.4084453,98.6075234 C90.4084453,100.99857 91.532,103.253336 93.4449141,104.680461 L123.808836,127.453594 C125.175094,128.478383 126.769508,128.971828 128.355883,128.971828 C130.671133,128.971828 132.948484,127.931727 134.436477,125.927703 C136.957297,122.579625 136.273977,117.820117 132.918625,115.307336 Z" id="Path"></path>
                <path d="M98,0 C43.9595078,0 0,43.9595078 0,98 C0,152.040492 43.9595078,196 98,196 C152.040492,196 196,152.040492 196,98 C196,43.9595078 152.040492,0 98,0 Z M98,180.818039 C52.3400391,180.818039 15.1819609,143.659961 15.1819609,98 C15.1819609,52.3400391 52.3400391,15.1819609 98,15.1819609 C143.667617,15.1819609 180.818039,52.3400391 180.818039,98 C180.818039,143.659961 143.659961,180.818039 98,180.818039 Z" id="Shape"></path>
            </g>
        </g>
    </g>
</svg>