<?xml version="1.0" encoding="UTF-8"?>
<svg width="513px" height="512px" viewBox="0 0 513 512" version="1.1" xmlns="http://www.w3.org/2000/svg" xmlns:xlink="http://www.w3.org/1999/xlink">
    <title>icon1</title>
    <g id="Page-1" stroke="none" stroke-width="1" fill="none" fill-rule="evenodd">
        <g id="icon1">
            <rect id="Rectangle" x="0" y="0" width="512" height="512"></rect>
            <g id="testing" fill="#FFFFFF" fill-rule="nonzero">
                <path d="M256.129166,0 C177.229166,0 105.730166,37 58.9301664,93.1 L39.7301664,74.2 C35.8301664,70 29.8291664,68.5 24.4301664,70.6 C19.0301664,72.1 15.1301664,76.899 14.5291664,82.599 L0.13016639,181.599 C-1.49583361,193.787 12.5611664,200.734 17.2301664,198.399 C20.2811664,197.965 122.607166,183.392 116.230166,184.3 C121.930166,183.699 126.431166,179.799 128.231166,174.399 C130.031166,168.999 128.830166,162.999 124.631166,158.8 L101.831166,136 C137.531166,90.399 194.030166,61 256.131166,61 C363.231166,61 451.831166,148.299 452.131166,255.399 C452.131166,255.699 452.131166,255.699 452.131166,256 C452.131166,259.814 452.005166,263.63 451.768166,267.413 C451.177166,276.9 459.469166,284.574 468.927166,283.191 L499.163166,278.765 C506.330166,277.716 511.735166,271.695 511.984166,264.457 C512.081166,261.615 512.131166,258.783 512.131166,255.999 C512.131166,115.551 397.208166,0 256.129166,0 Z" id="Path"></path>
                <path d="M495.029166,310.6 C491.978166,311.034 389.652166,325.607 396.029166,324.699 C390.329166,325.3 385.828166,329.2 384.028166,334.6 C382.228166,340 383.429166,346 387.628166,350.201 L411.629166,374.201 C376.227166,420.701 319.128166,451.001 256.128166,451.001 C148.727166,451.001 60.1281664,363.4 60.1281664,256.001 C60.2291664,254.049 59.8861664,249.847 60.5441664,241.86 C61.3351664,232.238 52.9621664,224.43 43.5011664,225.763 L13.2701664,230.018 C6.12916639,231.025 0.70016639,236.974 0.37616639,244.181 C-0.000833609667,252.537 0.16916639,259.267 0.124463622,262.299 C3.42916639,400 117.529166,512 256.129166,512 C335.928166,512 408.030166,474.399 454.830166,417.1 L472.529166,434.799 C476.469166,439.177 483.017166,440.325 487.829166,438.399 C493.229166,436.899 497.129166,432.1 497.730166,426.4 L512.129166,327.4 C513.369166,318.113 504.796166,308.971 495.029166,310.6 Z" id="Path"></path>
            </g>
            <circle id="Oval" fill="#FFFFFF" cx="256" cy="256" r="82"></circle>
        </g>
    </g>
</svg>